<svg width="392" height="545" viewBox="0 0 392 545" fill="none" xmlns="http://www.w3.org/2000/svg">
<path d="M242.684 146.711C269.556 119.84 269.556 76.2725 242.684 49.401C215.813 22.5295 172.245 22.5295 145.374 49.401C118.502 76.2725 118.502 119.84 145.374 146.711C172.245 173.583 215.813 173.583 242.684 146.711Z" fill="url(#paint0_linear_560_7)"/>
<path d="M194.032 351.014C293.802 351.014 374.673 270.136 374.673 170.373H13.3906C13.3906 270.143 94.2684 351.014 194.032 351.014Z" fill="url(#paint1_linear_560_7)"/>
<path d="M195.988 268.751C88.2525 268.751 0.605469 356.405 0.605469 464.141V544.3H6.0991V464.141C6.0991 359.432 91.2862 274.245 195.995 274.245C300.704 274.245 385.891 359.432 385.891 464.141V544.3H391.385V464.141C391.385 356.405 303.738 268.758 196.002 268.758L195.988 268.751Z" fill="url(#paint2_linear_560_7)"/>
<path d="M195.989 283.023C96.1209 283.023 14.8711 364.273 14.8711 464.141V544.3H20.3647V464.141C20.3647 367.299 99.1474 288.517 195.989 288.517C292.83 288.517 371.613 367.299 371.613 464.141V544.3H377.106V464.141C377.106 364.273 295.857 283.023 195.989 283.023Z" fill="url(#paint3_linear_560_7)"/>
<path d="M195.99 297.295C103.99 297.295 29.1445 372.141 29.1445 464.141V544.301H34.6382V464.141C34.6382 375.167 107.024 302.789 195.99 302.789C284.957 302.789 357.342 375.174 357.342 464.141V544.301H362.836V464.141C362.836 372.141 287.991 297.295 195.99 297.295Z" fill="url(#paint4_linear_560_7)"/>
<path d="M195.988 311.56C111.855 311.56 43.4141 380.008 43.4141 464.134V544.293H48.9077V464.134C48.9077 383.027 114.889 317.047 195.995 317.047C277.101 317.047 343.082 383.027 343.082 464.134V544.293H348.576V464.134C348.576 380.001 280.128 311.56 196.002 311.56H195.988Z" fill="url(#paint5_linear_560_7)"/>
<path d="M195.989 325.832C119.723 325.832 57.6797 387.876 57.6797 464.141V544.301H63.1733V464.141C63.1733 390.909 122.757 331.326 195.989 331.326C269.22 331.326 328.804 390.909 328.804 464.141V544.301H334.298V464.141C334.298 387.876 272.254 325.832 195.989 325.832Z" fill="url(#paint6_linear_560_7)"/>
<path d="M195.986 340.104C127.588 340.104 71.9492 395.751 71.9492 464.141V544.301H77.4428V464.141C77.4428 398.777 130.622 345.598 195.986 345.598C261.35 345.598 314.53 398.777 314.53 464.141V544.301H320.023V464.141C320.023 395.744 264.377 340.104 195.986 340.104Z" fill="url(#paint7_linear_560_7)"/>
<path d="M195.988 354.369C135.465 354.369 86.2227 403.611 86.2227 464.134V544.293H91.7163V464.134C91.7163 406.637 138.491 359.855 195.995 359.855C253.499 359.855 300.273 406.63 300.273 464.134V544.293H305.767V464.134C305.767 403.611 256.525 354.369 196.002 354.369H195.988Z" fill="url(#paint8_linear_560_7)"/>
<path d="M195.989 368.641C143.333 368.641 100.488 411.478 100.488 464.141V544.301H105.982V464.141C105.982 414.512 146.359 374.134 195.989 374.134C245.618 374.134 285.995 414.512 285.995 464.141V544.301H291.489V464.141C291.489 411.485 248.651 368.641 195.989 368.641Z" fill="url(#paint9_linear_560_7)"/>
<path d="M195.986 382.913C151.198 382.913 114.758 419.353 114.758 464.141V544.301H120.251V464.141C120.251 422.38 154.224 388.407 195.986 388.407C237.748 388.407 271.721 422.38 271.721 464.141V544.301H277.214V464.141C277.214 419.353 240.774 382.913 195.986 382.913Z" fill="url(#paint10_linear_560_7)"/>
<path d="M195.988 397.178C159.067 397.178 129.031 427.213 129.031 464.134V544.294H134.525V464.134C134.525 430.24 162.101 402.664 195.995 402.664C229.889 402.664 257.465 430.24 257.465 464.134V544.294H262.958V464.134C262.958 427.213 232.923 397.178 196.002 397.178H195.988Z" fill="url(#paint11_linear_560_7)"/>
<path d="M195.988 411.449C166.935 411.449 143.297 435.088 143.297 464.141V544.3H148.79V464.141C148.79 438.114 169.962 416.943 195.988 416.943C222.015 416.943 243.186 438.114 243.186 464.141V544.3H248.68V464.141C248.68 435.088 225.042 411.449 195.988 411.449Z" fill="url(#paint12_linear_560_7)"/>
<path d="M195.986 425.722C174.8 425.722 157.566 442.956 157.566 464.141V544.301H163.06V464.141C163.06 445.982 177.834 431.215 195.986 431.215C214.138 431.215 228.912 445.989 228.912 464.141V544.301H234.406V464.141C234.406 442.956 217.172 425.722 195.986 425.722Z" fill="url(#paint13_linear_560_7)"/>
<path d="M195.987 439.986C182.669 439.986 171.84 450.823 171.84 464.133V544.293H177.333V464.133C177.333 453.842 185.703 445.472 195.995 445.472C206.286 445.472 214.656 453.842 214.656 464.133V544.293H220.149V464.133C220.149 450.815 209.313 439.986 196.002 439.986H195.987Z" fill="url(#paint14_linear_560_7)"/>
<defs>
<linearGradient id="paint0_linear_560_7" x1="183.83" y1="32.1683" x2="183.83" y2="165.085" gradientUnits="userSpaceOnUse">
<stop stop-color="#E0C6B2"/>
<stop offset="1" stop-color="#E0C6B2" stop-opacity="0"/>
</linearGradient>
<linearGradient id="paint1_linear_560_7" x1="194.032" y1="170.373" x2="194.032" y2="351.014" gradientUnits="userSpaceOnUse">
<stop stop-color="white"/>
<stop offset="1" stop-color="white" stop-opacity="0"/>
</linearGradient>
<linearGradient id="paint2_linear_560_7" x1="195.995" y1="268.751" x2="195.995" y2="544.3" gradientUnits="userSpaceOnUse">
<stop stop-color="#C1AA94"/>
<stop offset="1" stop-color="#C1AA94" stop-opacity="0"/>
</linearGradient>
<linearGradient id="paint3_linear_560_7" x1="195.989" y1="283.023" x2="195.989" y2="544.3" gradientUnits="userSpaceOnUse">
<stop stop-color="#C1AA94"/>
<stop offset="1" stop-color="#C1AA94" stop-opacity="0"/>
</linearGradient>
<linearGradient id="paint4_linear_560_7" x1="195.99" y1="297.295" x2="195.99" y2="544.301" gradientUnits="userSpaceOnUse">
<stop stop-color="#C1AA94"/>
<stop offset="1" stop-color="#C1AA94" stop-opacity="0"/>
</linearGradient>
<linearGradient id="paint5_linear_560_7" x1="195.995" y1="311.56" x2="195.995" y2="544.293" gradientUnits="userSpaceOnUse">
<stop stop-color="#C1AA94"/>
<stop offset="1" stop-color="#C1AA94" stop-opacity="0"/>
</linearGradient>
<linearGradient id="paint6_linear_560_7" x1="195.989" y1="325.832" x2="195.989" y2="544.301" gradientUnits="userSpaceOnUse">
<stop stop-color="#C1AA94"/>
<stop offset="1" stop-color="#C1AA94" stop-opacity="0"/>
</linearGradient>
<linearGradient id="paint7_linear_560_7" x1="195.986" y1="340.104" x2="195.986" y2="544.301" gradientUnits="userSpaceOnUse">
<stop stop-color="#C1AA94"/>
<stop offset="1" stop-color="#C1AA94" stop-opacity="0"/>
</linearGradient>
<linearGradient id="paint8_linear_560_7" x1="195.995" y1="354.369" x2="195.995" y2="544.293" gradientUnits="userSpaceOnUse">
<stop stop-color="#C1AA94"/>
<stop offset="1" stop-color="#C1AA94" stop-opacity="0"/>
</linearGradient>
<linearGradient id="paint9_linear_560_7" x1="195.989" y1="368.641" x2="195.989" y2="544.301" gradientUnits="userSpaceOnUse">
<stop stop-color="#C1AA94"/>
<stop offset="1" stop-color="#C1AA94" stop-opacity="0"/>
</linearGradient>
<linearGradient id="paint10_linear_560_7" x1="195.986" y1="382.913" x2="195.986" y2="544.301" gradientUnits="userSpaceOnUse">
<stop stop-color="#C1AA94"/>
<stop offset="1" stop-color="#C1AA94" stop-opacity="0"/>
</linearGradient>
<linearGradient id="paint11_linear_560_7" x1="195.995" y1="397.178" x2="195.995" y2="544.294" gradientUnits="userSpaceOnUse">
<stop stop-color="#C1AA94"/>
<stop offset="1" stop-color="#C1AA94" stop-opacity="0"/>
</linearGradient>
<linearGradient id="paint12_linear_560_7" x1="195.988" y1="411.449" x2="195.988" y2="544.3" gradientUnits="userSpaceOnUse">
<stop stop-color="#C1AA94"/>
<stop offset="1" stop-color="#C1AA94" stop-opacity="0"/>
</linearGradient>
<linearGradient id="paint13_linear_560_7" x1="195.986" y1="425.722" x2="195.986" y2="544.301" gradientUnits="userSpaceOnUse">
<stop stop-color="#C1AA94"/>
<stop offset="1" stop-color="#C1AA94" stop-opacity="0"/>
</linearGradient>
<linearGradient id="paint14_linear_560_7" x1="195.995" y1="439.986" x2="195.995" y2="544.293" gradientUnits="userSpaceOnUse">
<stop stop-color="#C1AA94"/>
<stop offset="1" stop-color="#C1AA94" stop-opacity="0"/>
</linearGradient>
</defs>
</svg>
