<svg width="13" height="14" viewBox="0 0 13 14" fill="none" xmlns="http://www.w3.org/2000/svg">
<path d="M10.73 0.914032H1.95C0.87 0.914032 0 1.78403 0 2.86403V11.644C0 12.724 0.87 13.594 1.95 13.594H10.73C11.81 13.594 12.68 12.724 12.68 11.644V2.86403C12.68 1.78403 11.81 0.914032 10.73 0.914032ZM11.71 11.644C11.71 12.184 11.27 12.624 10.73 12.624H1.95C1.41 12.624 0.97 12.184 0.97 11.644V2.86403C0.97 2.32403 1.41 1.88403 1.95 1.88403H10.73C11.27 1.88403 11.71 2.32403 11.71 2.86403V11.644Z" fill="white"/>
<path d="M3.92188 7.01372L6.34188 9.43372L8.76188 7.01372L6.34188 4.59372L3.92188 7.01372Z" fill="white"/>
</svg>
