<svg width="46" height="52" viewBox="0 0 46 52" fill="none" xmlns="http://www.w3.org/2000/svg">
<path d="M23.1042 4.89648C10.7777 4.89648 0.749023 14.9473 0.749023 27.3012V51.6904H1.28051V27.3012C1.28051 15.2404 11.0708 5.4285 23.1049 5.4285C35.139 5.4285 44.9292 15.2404 44.9292 27.3012V51.6904H45.4607V27.3012C45.4607 14.9473 35.4321 4.89648 23.1055 4.89648H23.1042Z" fill="url(#paint0_linear_2326_2658)"/>
<path d="M23.1038 6.53809C11.6793 6.53809 2.38477 15.8533 2.38477 27.303V51.6922H2.91626V27.303C2.91626 16.147 11.9725 7.07075 23.1045 7.07075C34.2365 7.07075 43.292 16.147 43.292 27.303V51.6922H43.8235V27.303C43.8235 15.8533 34.5289 6.53809 23.1045 6.53809H23.1038Z" fill="url(#paint1_linear_2326_2658)"/>
<path d="M23.1044 8.17725C12.582 8.17725 4.02148 16.7567 4.02148 27.3024V51.6916H4.55298V27.3024C4.55298 17.0505 12.8751 8.70991 23.1044 8.70991C33.3336 8.70991 41.6557 17.0505 41.6557 27.3024V51.6916H42.1872V27.3024C42.1872 16.7567 33.6267 8.17725 23.1044 8.17725Z" fill="url(#paint2_linear_2326_2658)"/>
<path d="M23.1035 9.81738C13.4832 9.81738 5.65674 17.6612 5.65674 27.3027V51.6919H6.18823V27.3027C6.18823 17.9549 13.7763 10.3501 23.1035 10.3501C32.4306 10.3501 40.0187 17.9549 40.0187 27.3027V51.6919H40.5502V27.3027C40.5502 17.6612 32.7237 9.81738 23.1035 9.81738Z" fill="url(#paint3_linear_2326_2658)"/>
<path d="M23.1055 11.4556C14.388 11.4556 7.29492 18.5637 7.29492 27.3011V51.6903H7.82641V27.3011C7.82641 18.8574 14.6804 11.9882 23.1055 11.9882C31.5305 11.9882 38.3845 18.8574 38.3845 27.3011V51.6903H38.916V27.3011C38.916 18.5643 31.8236 11.4556 23.1061 11.4556H23.1055Z" fill="url(#paint4_linear_2326_2658)"/>
<path d="M23.1039 13.0957C15.2885 13.0957 8.93018 19.4681 8.93018 27.3009V51.69H9.46167V27.3009C9.46167 19.7612 15.5816 13.6277 23.1046 13.6277C30.6275 13.6277 36.7475 19.7612 36.7475 27.3009V51.69H37.279V27.3009C37.279 19.4681 30.9206 13.0957 23.1052 13.0957H23.1039Z" fill="url(#paint5_linear_2326_2658)"/>
<path d="M23.1045 14.7368C16.1912 14.7368 10.5669 20.3736 10.5669 27.3022V51.6913H11.0984V27.3022C11.0984 20.6673 16.4843 15.2688 23.1051 15.2688C29.726 15.2688 35.1119 20.6667 35.1119 27.3022V51.6913H35.6434V27.3022C35.6434 20.3736 30.0191 14.7368 23.1058 14.7368H23.1045Z" fill="url(#paint6_linear_2326_2658)"/>
<path d="M23.1041 16.3765C17.0929 16.3765 12.2026 21.2775 12.2026 27.302V51.6912H12.7341V27.302C12.7341 21.5713 17.386 16.9091 23.1047 16.9091C28.8235 16.9091 33.4747 21.5713 33.4747 27.302V51.6912H34.0061V27.302C34.0061 21.2775 29.1159 16.3765 23.1047 16.3765H23.1041Z" fill="url(#paint7_linear_2326_2658)"/>
<path d="M23.1041 18.0166C17.995 18.0166 13.8389 22.182 13.8389 27.3024V51.6916H14.3704V27.3024C14.3704 22.4757 18.2882 18.5493 23.1041 18.5493C27.9201 18.5493 31.8379 22.4757 31.8379 27.3024V51.6916H32.3694V27.3024C32.3694 22.182 28.2132 18.0166 23.1041 18.0166Z" fill="url(#paint8_linear_2326_2658)"/>
<path d="M23.1037 19.6558C18.8974 19.6558 15.4746 23.0855 15.4746 27.3018V51.6909H16.0061V27.3018C16.0061 23.3792 19.1898 20.1884 23.1037 20.1884C27.0176 20.1884 30.2013 23.3792 30.2013 27.3018V51.6909H30.7328V27.3018C30.7328 23.0861 27.3107 19.6558 23.1037 19.6558Z" fill="url(#paint9_linear_2326_2658)"/>
<path d="M23.1033 21.2944C19.7991 21.2944 17.1104 23.9885 17.1104 27.3V51.6892H17.6418V27.3C17.6418 24.2822 20.0915 21.8264 23.1033 21.8264C26.1151 21.8264 28.5648 24.2816 28.5648 27.3V51.6892H29.0963V27.3C29.0963 23.9885 26.4082 21.2944 23.104 21.2944H23.1033Z" fill="url(#paint10_linear_2326_2658)"/>
<path d="M23.1047 22.9365C20.7025 22.9365 18.7485 24.8949 18.7485 27.3023V51.6915H19.28V27.3023C19.28 25.1886 20.9956 23.4685 23.1053 23.4685C25.215 23.4685 26.9306 25.188 26.9306 27.3023V51.6915H27.4621V27.3023C27.4621 24.8949 25.5081 22.9365 23.106 22.9365H23.1047Z" fill="url(#paint11_linear_2326_2658)"/>
<path d="M23.1043 24.5762C21.6042 24.5762 20.3843 25.7988 20.3843 27.3022V51.6913H20.9158V27.3022C20.9158 26.0926 21.898 25.1082 23.1049 25.1082C24.3118 25.1082 25.2934 26.0926 25.2934 27.3022V51.6913H25.8249V27.3022C25.8249 25.7988 24.6049 24.5762 23.1049 24.5762H23.1043Z" fill="url(#paint12_linear_2326_2658)"/>
<path d="M22.9133 18.0857C32.5277 18.0857 40.3496 10.2465 40.3496 0.61084H5.47705C5.47705 10.2465 13.299 18.0857 22.9133 18.0857Z" fill="#13363A"/>
<path d="M28.3148 45.3423C31.4604 42.2036 31.4604 37.1148 28.3148 33.9761C25.1692 30.8374 20.0692 30.8374 16.9236 33.9761C13.778 37.1148 13.778 42.2036 16.9236 45.3423C20.0692 48.481 25.1692 48.481 28.3148 45.3423Z" fill="#E0C6B2"/>
<defs>
<linearGradient id="paint0_linear_2326_2658" x1="23.1049" y1="4.89648" x2="23.1049" y2="51.6904" gradientUnits="userSpaceOnUse">
<stop stop-color="#C1AA94"/>
<stop offset="1" stop-color="#C1AA94" stop-opacity="0"/>
</linearGradient>
<linearGradient id="paint1_linear_2326_2658" x1="23.1041" y1="6.53809" x2="23.1041" y2="51.6922" gradientUnits="userSpaceOnUse">
<stop stop-color="#C1AA94"/>
<stop offset="1" stop-color="#C1AA94" stop-opacity="0"/>
</linearGradient>
<linearGradient id="paint2_linear_2326_2658" x1="23.1044" y1="8.17725" x2="23.1044" y2="51.6916" gradientUnits="userSpaceOnUse">
<stop stop-color="#C1AA94"/>
<stop offset="1" stop-color="#C1AA94" stop-opacity="0"/>
</linearGradient>
<linearGradient id="paint3_linear_2326_2658" x1="23.1035" y1="9.81738" x2="23.1035" y2="51.6919" gradientUnits="userSpaceOnUse">
<stop stop-color="#C1AA94"/>
<stop offset="1" stop-color="#C1AA94" stop-opacity="0"/>
</linearGradient>
<linearGradient id="paint4_linear_2326_2658" x1="23.1055" y1="11.4556" x2="23.1055" y2="51.6903" gradientUnits="userSpaceOnUse">
<stop stop-color="#C1AA94"/>
<stop offset="1" stop-color="#C1AA94" stop-opacity="0"/>
</linearGradient>
<linearGradient id="paint5_linear_2326_2658" x1="23.1046" y1="13.0957" x2="23.1046" y2="51.69" gradientUnits="userSpaceOnUse">
<stop stop-color="#C1AA94"/>
<stop offset="1" stop-color="#C1AA94" stop-opacity="0"/>
</linearGradient>
<linearGradient id="paint6_linear_2326_2658" x1="23.1051" y1="14.7368" x2="23.1051" y2="51.6913" gradientUnits="userSpaceOnUse">
<stop stop-color="#C1AA94"/>
<stop offset="1" stop-color="#C1AA94" stop-opacity="0"/>
</linearGradient>
<linearGradient id="paint7_linear_2326_2658" x1="23.1044" y1="16.3765" x2="23.1044" y2="51.6912" gradientUnits="userSpaceOnUse">
<stop stop-color="#C1AA94"/>
<stop offset="1" stop-color="#C1AA94" stop-opacity="0"/>
</linearGradient>
<linearGradient id="paint8_linear_2326_2658" x1="23.1041" y1="18.0166" x2="23.1041" y2="51.6916" gradientUnits="userSpaceOnUse">
<stop stop-color="#C1AA94"/>
<stop offset="1" stop-color="#C1AA94" stop-opacity="0"/>
</linearGradient>
<linearGradient id="paint9_linear_2326_2658" x1="23.1037" y1="19.6558" x2="23.1037" y2="51.6909" gradientUnits="userSpaceOnUse">
<stop stop-color="#C1AA94"/>
<stop offset="1" stop-color="#C1AA94" stop-opacity="0"/>
</linearGradient>
<linearGradient id="paint10_linear_2326_2658" x1="23.1033" y1="21.2944" x2="23.1033" y2="51.6892" gradientUnits="userSpaceOnUse">
<stop stop-color="#C1AA94"/>
<stop offset="1" stop-color="#C1AA94" stop-opacity="0"/>
</linearGradient>
<linearGradient id="paint11_linear_2326_2658" x1="23.1053" y1="22.9365" x2="23.1053" y2="51.6915" gradientUnits="userSpaceOnUse">
<stop stop-color="#C1AA94"/>
<stop offset="1" stop-color="#C1AA94" stop-opacity="0"/>
</linearGradient>
<linearGradient id="paint12_linear_2326_2658" x1="23.1046" y1="24.5762" x2="23.1046" y2="51.6913" gradientUnits="userSpaceOnUse">
<stop stop-color="#C1AA94"/>
<stop offset="1" stop-color="#C1AA94" stop-opacity="0"/>
</linearGradient>
</defs>
</svg>
