<svg width="44" height="53" viewBox="0 0 44 53" fill="none" xmlns="http://www.w3.org/2000/svg">
<path d="M14.797 11.527C11.4487 14.8793 11.4519 20.3112 14.8042 23.6596C18.1565 27.0079 23.5885 27.0047 26.9368 23.6524C30.2851 20.3001 30.2819 14.8682 26.9296 11.5198C23.5773 8.17147 18.1454 8.17468 14.797 11.527Z" fill="#E0C6B2"/>
<path d="M28.9804 44.3974C37.2761 39.6553 40.1563 29.0867 35.4145 20.7915L5.37451 37.9634C10.1166 46.2591 20.6853 49.1392 28.9804 44.3974Z" fill="#13363A"/>
<path d="M19.867 41.584C30.821 41.584 39.7329 32.6523 39.7329 21.674L39.7329 0.00062561H39.2606L39.2606 21.674C39.2606 32.3918 30.5605 41.1112 19.8664 41.1112C9.17229 41.1112 0.472191 32.3918 0.472191 21.674L0.472191 0.00062561H-0.00012207L-0.00012207 21.674C-0.00012207 32.6523 8.91183 41.584 19.8658 41.584H19.867Z" fill="url(#paint0_linear_2326_3185)"/>
<path d="M19.8678 40.1274C30.0202 40.1274 38.2798 31.8495 38.2798 21.6747L38.2798 0.00127411H37.8075L37.8075 21.6747C37.8075 31.5885 29.7597 39.6541 19.8672 39.6541C9.97479 39.6541 1.92759 31.5885 1.92759 21.6747L1.92759 0.00127411H1.45528L1.45528 21.6747C1.45528 31.8495 9.7149 40.1274 19.8672 40.1274H19.8678Z" fill="url(#paint1_linear_2326_3185)"/>
<path d="M19.8677 38.6685C29.2184 38.6685 36.8257 31.0443 36.8257 21.6729L36.8257 -0.000522614H36.3534L36.3534 21.6729C36.3534 30.7833 28.9579 38.1951 19.8677 38.1951C10.7775 38.1951 3.38201 30.7833 3.38201 21.6729L3.38201 -0.000522614H2.9097L2.9097 21.6729C2.9097 31.0443 10.517 38.6685 19.8677 38.6685Z" fill="url(#paint2_linear_2326_3185)"/>
<path d="M19.8676 37.2124C28.4166 37.2124 35.3716 30.242 35.3716 21.674L35.3716 0.000617981H34.8993L34.8993 21.674C34.8993 29.981 28.1561 36.739 19.8676 36.739C11.579 36.739 4.83585 29.981 4.83585 21.674V0.000617981H4.36354V21.674C4.36354 30.242 11.3185 37.2124 19.8676 37.2124Z" fill="url(#paint3_linear_2326_3185)"/>
<path d="M19.866 35.7549C27.6128 35.7549 33.916 29.4383 33.916 21.6737L33.916 0.000289917H33.4437L33.4437 21.6737C33.4437 29.1772 27.3529 35.2815 19.866 35.2815C12.3791 35.2815 6.28823 29.1772 6.28823 21.6737L6.28823 0.000289917H5.81592L5.81592 21.6737C5.81592 29.4377 12.1186 35.7549 19.8654 35.7549H19.866Z" fill="url(#paint4_linear_2326_3185)"/>
<path d="M19.8669 34.2974C26.8121 34.2974 32.4624 28.6345 32.4624 21.674L32.4624 0.000541687H31.9901L31.9901 21.674C31.9901 28.374 26.5516 33.8246 19.8663 33.8246C13.1811 33.8246 7.74256 28.374 7.74256 21.674L7.74256 0.000541687H7.27025L7.27025 21.674C7.27025 28.6345 12.9206 34.2974 19.8657 34.2974H19.8669Z" fill="url(#paint5_linear_2326_3185)"/>
<path d="M19.8673 32.8398C26.0108 32.8398 31.0088 27.8307 31.0088 21.6736L31.0088 0.000217438H30.5365L30.5365 21.6736C30.5365 27.5697 25.7503 32.3671 19.8667 32.3671C13.9831 32.3671 9.19689 27.5703 9.19689 21.6736L9.19689 0.000217438H8.72458L8.72458 21.6736C8.72458 27.8307 13.7226 32.8398 19.8661 32.8398H19.8673Z" fill="url(#paint6_linear_2326_3185)"/>
<path d="M19.8671 31.3833C25.209 31.3833 29.5547 27.028 29.5547 21.6743L29.5547 0.000869751H29.0824L29.0824 21.6743C29.0824 26.7669 24.9485 30.9099 19.8666 30.9099C14.7846 30.9099 10.6513 26.7669 10.6513 21.6743L10.6513 0.000869751H10.179L10.179 21.6743C10.179 27.028 14.5247 31.3833 19.8666 31.3833H19.8671Z" fill="url(#paint7_linear_2326_3185)"/>
<path d="M19.8675 29.9263C24.4077 29.9263 28.1011 26.2247 28.1011 21.6745L28.1011 0.00102615H27.6288L27.6288 21.6745C27.6288 25.9637 24.1472 29.4529 19.8675 29.4529C15.5878 29.4529 12.1062 25.9637 12.1062 21.6745L12.1062 0.00102615H11.6339L11.6339 21.6745C11.6339 26.2247 15.3273 29.9263 19.8675 29.9263Z" fill="url(#paint8_linear_2326_3185)"/>
<path d="M19.8679 28.4683C23.6058 28.4683 26.6475 25.4205 26.6475 21.6736L26.6475 0.000213623H26.1752L26.1752 21.6736C26.1752 25.1594 23.3459 27.9949 19.8679 27.9949C16.3898 27.9949 13.5606 25.1594 13.5606 21.6736L13.5606 0.000213623H13.0882L13.0882 21.6736C13.0882 25.4199 16.1293 28.4683 19.8679 28.4683Z" fill="url(#paint9_linear_2326_3185)"/>
<path d="M19.8677 27.0107C22.804 27.0107 25.1934 24.6167 25.1934 21.6739L25.1934 0.0004673H24.7211L24.7211 21.6739C24.7211 24.3557 22.5441 26.538 19.8677 26.538C17.1913 26.538 15.0144 24.3562 15.0144 21.6739L15.0144 0.0004673H14.5421L14.5421 21.6739C14.5421 24.6167 16.9308 27.0107 19.8671 27.0107H19.8677Z" fill="url(#paint10_linear_2326_3185)"/>
<path d="M19.8672 25.5537C22.0018 25.5537 23.7383 23.8134 23.7383 21.6741L23.7383 0.000629425H23.266L23.266 21.6741C23.266 23.5524 21.7414 25.0809 19.8666 25.0809C17.9918 25.0809 16.4673 23.553 16.4673 21.6741L16.4673 0.000629425H15.995L15.995 21.6741C15.995 23.8134 17.7314 25.5537 19.866 25.5537H19.8672Z" fill="url(#paint11_linear_2326_3185)"/>
<path d="M19.8671 24.0972C21.2001 24.0972 22.2842 23.0107 22.2842 21.6747L22.2842 0.00127792H21.8119L21.8119 21.6747C21.8119 22.7496 20.939 23.6244 19.8665 23.6244C18.794 23.6244 17.9217 22.7496 17.9217 21.6747L17.9217 0.00127792H17.4494L17.4494 21.6747C17.4494 23.0107 18.5335 24.0972 19.8665 24.0972H19.8671Z" fill="url(#paint12_linear_2326_3185)"/>
<defs>
<linearGradient id="paint0_linear_2326_3185" x1="19.8664" y1="41.584" x2="19.8664" y2="0.00062561" gradientUnits="userSpaceOnUse">
<stop stop-color="#C1AA94" stop-opacity="0"/>
<stop offset="1" stop-color="#C1AA94"/>
</linearGradient>
<linearGradient id="paint1_linear_2326_3185" x1="19.8675" y1="40.1274" x2="19.8675" y2="0.00127411" gradientUnits="userSpaceOnUse">
<stop stop-color="#C1AA94" stop-opacity="0"/>
<stop offset="1" stop-color="#C1AA94"/>
</linearGradient>
<linearGradient id="paint2_linear_2326_3185" x1="19.8677" y1="38.6685" x2="19.8677" y2="-0.000522614" gradientUnits="userSpaceOnUse">
<stop stop-color="#C1AA94" stop-opacity="0"/>
<stop offset="1" stop-color="#C1AA94"/>
</linearGradient>
<linearGradient id="paint3_linear_2326_3185" x1="19.8676" y1="37.2124" x2="19.8676" y2="0.000617981" gradientUnits="userSpaceOnUse">
<stop stop-color="#C1AA94" stop-opacity="0"/>
<stop offset="1" stop-color="#C1AA94"/>
</linearGradient>
<linearGradient id="paint4_linear_2326_3185" x1="19.866" y1="35.7549" x2="19.866" y2="0.000289917" gradientUnits="userSpaceOnUse">
<stop stop-color="#C1AA94" stop-opacity="0"/>
<stop offset="1" stop-color="#C1AA94"/>
</linearGradient>
<linearGradient id="paint5_linear_2326_3185" x1="19.8663" y1="34.2974" x2="19.8663" y2="0.000541687" gradientUnits="userSpaceOnUse">
<stop stop-color="#C1AA94" stop-opacity="0"/>
<stop offset="1" stop-color="#C1AA94"/>
</linearGradient>
<linearGradient id="paint6_linear_2326_3185" x1="19.8667" y1="32.8398" x2="19.8667" y2="0.000217438" gradientUnits="userSpaceOnUse">
<stop stop-color="#C1AA94" stop-opacity="0"/>
<stop offset="1" stop-color="#C1AA94"/>
</linearGradient>
<linearGradient id="paint7_linear_2326_3185" x1="19.8668" y1="31.3833" x2="19.8668" y2="0.000869751" gradientUnits="userSpaceOnUse">
<stop stop-color="#C1AA94" stop-opacity="0"/>
<stop offset="1" stop-color="#C1AA94"/>
</linearGradient>
<linearGradient id="paint8_linear_2326_3185" x1="19.8675" y1="29.9263" x2="19.8675" y2="0.00102615" gradientUnits="userSpaceOnUse">
<stop stop-color="#C1AA94" stop-opacity="0"/>
<stop offset="1" stop-color="#C1AA94"/>
</linearGradient>
<linearGradient id="paint9_linear_2326_3185" x1="19.8679" y1="28.4683" x2="19.8679" y2="0.000213623" gradientUnits="userSpaceOnUse">
<stop stop-color="#C1AA94" stop-opacity="0"/>
<stop offset="1" stop-color="#C1AA94"/>
</linearGradient>
<linearGradient id="paint10_linear_2326_3185" x1="19.8677" y1="27.0107" x2="19.8677" y2="0.0004673" gradientUnits="userSpaceOnUse">
<stop stop-color="#C1AA94" stop-opacity="0"/>
<stop offset="1" stop-color="#C1AA94"/>
</linearGradient>
<linearGradient id="paint11_linear_2326_3185" x1="19.8666" y1="25.5537" x2="19.8666" y2="0.000629425" gradientUnits="userSpaceOnUse">
<stop stop-color="#C1AA94" stop-opacity="0"/>
<stop offset="1" stop-color="#C1AA94"/>
</linearGradient>
<linearGradient id="paint12_linear_2326_3185" x1="19.8668" y1="24.0972" x2="19.8668" y2="0.00127792" gradientUnits="userSpaceOnUse">
<stop stop-color="#C1AA94" stop-opacity="0"/>
<stop offset="1" stop-color="#C1AA94"/>
</linearGradient>
</defs>
</svg>
