<svg width="13" height="14" viewBox="0 0 13 14" fill="none" xmlns="http://www.w3.org/2000/svg">
<path d="M10.69 3.34341H7.37L9.39 0.893407L8.64 0.273407L6.33 3.06341L4.03 0.273407L3.28 0.893407L5.3 3.34341H1.98C0.88 3.34341 0 4.23341 0 5.32341V11.8134C0 12.9134 0.89 13.7934 1.98 13.7934H10.69C11.79 13.7934 12.67 12.9034 12.67 11.8134V5.32341C12.67 4.22341 11.78 3.34341 10.69 3.34341ZM11.7 11.8234C11.7 12.3834 11.25 12.8334 10.69 12.8334H1.98C1.42 12.8334 0.97 12.3834 0.97 11.8234V5.33341C0.97 4.77341 1.42 4.32341 1.98 4.32341H10.69C11.25 4.32341 11.7 4.77341 11.7 5.33341V11.8234Z" fill="white"/>
<path d="M5.6575 6.64425C5.3575 6.42425 4.9375 6.63425 4.9375 7.00425V10.1442C4.9375 10.5142 5.3675 10.7242 5.6575 10.5042L7.7475 8.93425C7.9875 8.75425 7.9875 8.39425 7.7475 8.21425L5.6575 6.64425Z" fill="white"/>
</svg>
