<svg width="22" height="34" viewBox="0 0 22 34" fill="none" xmlns="http://www.w3.org/2000/svg">
<path d="M13.8669 13.1464V23.1381C13.8669 24.605 12.6296 25.805 11.117 25.805C9.60453 25.805 8.36719 24.605 8.36719 23.1381V13.1464H13.8669Z" stroke="#AD9B8A" stroke-width="0.419957" stroke-miterlimit="10"/>
<path d="M14.605 13.1464V23.2245C14.605 25.085 13.0351 26.6076 11.1167 26.6076C9.19835 26.6076 7.62842 25.085 7.62842 23.2245V13.1464H14.605Z" stroke="#AD9B8A" stroke-width="0.419957" stroke-miterlimit="10"/>
<path d="M15.3363 13.1464V23.1689C15.3363 25.4153 13.4417 27.2527 11.1254 27.2527C8.80914 27.2527 6.9165 25.4153 6.9165 23.1689V13.1464H15.3363Z" stroke="#AD9B8A" stroke-width="0.419957" stroke-miterlimit="10"/>
<path d="M16.1021 13.1464V23.213C16.1021 25.8588 13.8709 28.0226 11.1448 28.0226C8.41869 28.0226 6.18555 25.8588 6.18555 23.213V13.1464H16.1021Z" stroke="#AD9B8A" stroke-width="0.419957" stroke-miterlimit="10"/>
<path d="M16.8683 13.1464V23.1938C16.8683 26.2274 14.3066 28.7119 11.1766 28.7119C8.04662 28.7119 5.48682 26.2274 5.48682 23.1938V13.1464H16.8683Z" stroke="#AD9B8A" stroke-width="0.419957" stroke-miterlimit="10"/>
<path d="M17.655 13.1464V23.1689C17.655 26.6421 14.725 29.4818 11.1456 29.4818C7.56627 29.4818 4.63428 26.6421 4.63428 23.1689V13.1464H17.655Z" stroke="#AD9B8A" stroke-width="0.419957" stroke-miterlimit="10"/>
<path d="M18.478 13.1464V23.1573C18.478 27.0722 15.1758 30.2729 11.1411 30.2729C7.10641 30.2729 3.8042 27.0722 3.8042 23.1573V13.1464H18.478Z" stroke="#AD9B8A" stroke-width="0.419957" stroke-miterlimit="10"/>
<path d="M19.216 13.1464V23.0921C19.216 27.3871 15.5931 30.9026 11.1624 30.9026C6.73179 30.9026 3.11084 27.3871 3.11084 23.0921V13.1464H19.216Z" stroke="#AD9B8A" stroke-width="0.419957" stroke-miterlimit="10"/>
<path d="M19.9656 13.1464V23.1765C19.9656 27.8613 16.014 31.6918 11.1854 31.6918C6.35684 31.6918 2.40527 27.8613 2.40527 23.1765V13.1464H19.9656Z" stroke="#AD9B8A" stroke-width="0.419957" stroke-miterlimit="10"/>
<path d="M20.7401 13.1464V23.1957C20.7401 28.3164 16.4203 32.5058 11.1403 32.5058C5.86032 32.5058 1.54053 28.3164 1.54053 23.1957V13.1464H20.7401Z" stroke="#AD9B8A" stroke-width="0.419957" stroke-miterlimit="10"/>
<path d="M21.52 13.1464V23.142C21.52 28.6831 16.8458 33.2143 11.1343 33.2143C5.4227 33.2143 0.748535 28.6831 0.748535 23.142V13.1464H21.52Z" stroke="#AD9B8A" stroke-width="0.419957" stroke-miterlimit="10"/>
<path d="M13.865 13.1453V23.137C13.865 24.6039 12.6276 25.8039 11.1151 25.8039C9.60257 25.8039 8.36523 24.6039 8.36523 23.137V13.1453H13.865Z" stroke="#AD9B8A" stroke-width="0.419957" stroke-miterlimit="10"/>
<path d="M14.605 13.1453V23.2234C14.605 25.0839 13.0351 26.6065 11.1167 26.6065C9.19835 26.6065 7.62842 25.0839 7.62842 23.2234V13.1453H14.605Z" stroke="#AD9B8A" stroke-width="0.419957" stroke-miterlimit="10"/>
<path d="M15.3363 13.1453V23.1678C15.3363 25.4142 13.4417 27.2516 11.1254 27.2516C8.80914 27.2516 6.9165 25.4142 6.9165 23.1678V13.1453H15.3363Z" stroke="#AD9B8A" stroke-width="0.419957" stroke-miterlimit="10"/>
<path d="M16.1021 13.1453V23.2119C16.1021 25.8577 13.8709 28.0215 11.1448 28.0215C8.41869 28.0215 6.18555 25.8577 6.18555 23.2119V13.1453H16.1021Z" stroke="#AD9B8A" stroke-width="0.419957" stroke-miterlimit="10"/>
<path d="M16.8683 13.1453V23.1927C16.8683 26.2263 14.3066 28.7108 11.1766 28.7108C8.04662 28.7108 5.48682 26.2263 5.48682 23.1927V13.1453H16.8683Z" stroke="#AD9B8A" stroke-width="0.419957" stroke-miterlimit="10"/>
<path d="M17.655 13.1453V23.1678C17.655 26.641 14.725 29.4807 11.1456 29.4807C7.56627 29.4807 4.63428 26.641 4.63428 23.1678V13.1453H17.655Z" stroke="#AD9B8A" stroke-width="0.419957" stroke-miterlimit="10"/>
<path d="M18.478 13.1453V23.1562C18.478 27.0711 15.1758 30.2718 11.1411 30.2718C7.10641 30.2718 3.8042 27.0711 3.8042 23.1562V13.1453H18.478Z" stroke="#AD9B8A" stroke-width="0.419957" stroke-miterlimit="10"/>
<path d="M19.216 13.1453V23.091C19.216 27.386 15.5931 30.9015 11.1624 30.9015C6.73179 30.9015 3.11084 27.386 3.11084 23.091V13.1453H19.216Z" stroke="#AD9B8A" stroke-width="0.419957" stroke-miterlimit="10"/>
<path d="M19.9656 13.1453V23.1754C19.9656 27.8602 16.014 31.6907 11.1854 31.6907C6.35684 31.6907 2.40527 27.8602 2.40527 23.1754V13.1453H19.9656Z" stroke="#AD9B8A" stroke-width="0.419957" stroke-miterlimit="10"/>
<path d="M20.7401 13.1453V23.1946C20.7401 28.3153 16.4203 32.5047 11.1403 32.5047C5.86032 32.5047 1.54053 28.3153 1.54053 23.1946V13.1453H20.7401Z" stroke="#AD9B8A" stroke-width="0.419957" stroke-miterlimit="10"/>
<path d="M21.52 13.1454V23.1409C21.52 28.6821 16.8458 33.2133 11.1343 33.2133C5.4227 33.2133 0.748535 28.6821 0.748535 23.1409V13.1454H21.52Z" stroke="#AD9B8A" stroke-width="0.419957" stroke-miterlimit="10"/>
<path d="M11.1336 0.423977L4.63867 6.72296L11.1336 13.0219L17.6286 6.72296L11.1336 0.423977Z" fill="#1A595F"/>
</svg>
