<svg width="46" height="57" viewBox="0 0 46 57" fill="none" xmlns="http://www.w3.org/2000/svg">
<path d="M28.2751 17.5792C31.3497 14.5046 31.3497 9.51979 28.2751 6.44524C25.2006 3.3707 20.2157 3.3707 17.1412 6.44524C14.0666 9.51979 14.0666 14.5046 17.1412 17.5792C20.2157 20.6537 25.2006 20.6537 28.2751 17.5792Z" fill="#E0C6B2"/>
<path d="M22.6432 34.3439C31.2586 34.3439 38.242 27.3599 38.242 18.7451H7.04443C7.04443 27.3605 14.0284 34.3439 22.6432 34.3439Z" fill="#13363A"/>
<path d="M22.9297 24.7734C10.603 24.7734 0.574707 34.8026 0.574707 47.1293V56.3009H1.20327V47.1293C1.20327 35.1488 10.9501 25.402 22.9306 25.402C34.911 25.402 44.6578 35.1488 44.6578 47.1293V56.3009H45.2864V47.1293C45.2864 34.8026 35.2581 24.7743 22.9314 24.7743L22.9297 24.7734Z" fill="url(#paint0_linear_2326_2800)"/>
<path d="M22.9294 26.4062C11.5029 26.4062 2.20654 35.7026 2.20654 47.1291V56.3008H2.83511V47.1291C2.83511 36.0489 11.8492 27.0348 22.9294 27.0348C34.0097 27.0348 43.0238 36.0489 43.0238 47.1291V56.3008H43.6523V47.1291C43.6523 35.7026 34.356 26.4062 22.9294 26.4062Z" fill="url(#paint1_linear_2326_2800)"/>
<path d="M22.9308 28.0376C12.4044 28.0376 3.84082 36.6012 3.84082 47.1275V56.2992H4.46938V47.1275C4.46938 36.9474 12.7515 28.6662 22.9308 28.6662C33.11 28.6662 41.3921 36.9483 41.3921 47.1275V56.2992H42.0207V47.1275C42.0207 36.6012 33.4571 28.0376 22.9308 28.0376Z" fill="url(#paint2_linear_2326_2800)"/>
<path d="M22.9316 29.6714C13.3054 29.6714 5.47461 37.503 5.47461 47.1284V56.3H6.10317V47.1284C6.10317 37.8485 13.6525 30.2991 22.9324 30.2991C32.2123 30.2991 39.7617 37.8485 39.7617 47.1284V56.3H40.3902V47.1284C40.3902 37.5022 32.5586 29.6714 22.9332 29.6714H22.9316Z" fill="url(#paint3_linear_2326_2800)"/>
<path d="M22.9294 31.3042C14.2033 31.3042 7.10449 38.403 7.10449 47.1291V56.3007H7.73306V47.1291C7.73306 38.7501 14.5504 31.9328 22.9294 31.9328C31.3083 31.9328 38.1257 38.7501 38.1257 47.1291V56.3007H38.7542V47.1291C38.7542 38.403 31.6554 31.3042 22.9294 31.3042Z" fill="url(#paint4_linear_2326_2800)"/>
<path d="M22.9307 32.9375C15.1048 32.9375 8.73877 39.3044 8.73877 47.1294V56.301H9.36733V47.1294C9.36733 39.6507 15.4519 33.5661 22.9307 33.5661C30.4094 33.5661 36.494 39.6507 36.494 47.1294V56.301H37.1226V47.1294C37.1226 39.3035 30.7557 32.9375 22.9307 32.9375Z" fill="url(#paint5_linear_2326_2800)"/>
<path d="M22.9296 34.5684C16.0047 34.5684 10.3706 40.2025 10.3706 47.1273V56.2989H10.9992V47.1273C10.9992 40.5487 16.351 35.1961 22.9304 35.1961C29.5098 35.1961 34.8616 40.5479 34.8616 47.1273V56.2989H35.4902V47.1273C35.4902 40.2025 29.8561 34.5684 22.9312 34.5684H22.9296Z" fill="url(#paint6_linear_2326_2800)"/>
<path d="M22.9278 36.2031C16.9031 36.2031 12.001 41.1044 12.001 47.13V56.3016H12.6295V47.13C12.6295 41.4515 17.2494 36.8317 22.9278 36.8317C28.6062 36.8317 33.2261 41.4515 33.2261 47.13V56.3016H33.8546V47.13C33.8546 41.1053 28.9533 36.2031 22.9278 36.2031Z" fill="url(#paint7_linear_2326_2800)"/>
<path d="M22.9272 37.835C17.8027 37.835 13.6333 42.0043 13.6333 47.1288V56.3004H14.2619V47.1288C14.2619 42.3506 18.1489 38.4635 22.9272 38.4635C27.7054 38.4635 31.5925 42.3506 31.5925 47.1288V56.3004H32.2211V47.1288C32.2211 42.0043 28.0517 37.835 22.9272 37.835Z" fill="url(#paint8_linear_2326_2800)"/>
<path d="M22.93 39.4673C18.7056 39.4673 15.269 42.9039 15.269 47.1282V56.2998H15.8976V47.1282C15.8976 43.2502 19.0527 40.095 22.9308 40.095C26.8088 40.095 29.964 43.2502 29.964 47.1282V56.2998H30.5925V47.1282C30.5925 42.9039 27.1559 39.4673 22.9316 39.4673H22.93Z" fill="url(#paint9_linear_2326_2800)"/>
<path d="M22.9302 41.1006C19.606 41.1006 16.9014 43.8052 16.9014 47.1294V56.301H17.5299V47.1294C17.5299 44.1515 19.9523 41.7291 22.9302 41.7291C25.908 41.7291 28.3304 44.1515 28.3304 47.1294V56.301H28.959V47.1294C28.959 43.8052 26.2543 41.1006 22.9302 41.1006Z" fill="url(#paint10_linear_2326_2800)"/>
<path d="M22.9286 42.7324C20.5046 42.7324 18.5327 44.7043 18.5327 47.1283V56.2999H19.1613V47.1283C19.1613 45.0506 20.8517 43.361 22.9286 43.361C25.0054 43.361 26.6958 45.0514 26.6958 47.1283V56.2999H27.3244V47.1283C27.3244 44.7043 25.3525 42.7324 22.9286 42.7324Z" fill="url(#paint11_linear_2326_2800)"/>
<path d="M22.9304 44.3647C21.4066 44.3647 20.1675 45.6046 20.1675 47.1276V56.2992H20.796V47.1276C20.796 45.9501 21.7537 44.9925 22.9312 44.9925C24.1087 44.9925 25.0663 45.9501 25.0663 47.1276V56.2992H25.6949V47.1276C25.6949 45.6038 24.455 44.3647 22.932 44.3647H22.9304Z" fill="url(#paint12_linear_2326_2800)"/>
<defs>
<linearGradient id="paint0_linear_2326_2800" x1="22.9306" y1="24.7734" x2="22.9306" y2="56.3009" gradientUnits="userSpaceOnUse">
<stop stop-color="#C1AA94"/>
<stop offset="1" stop-color="#C1AA94" stop-opacity="0"/>
</linearGradient>
<linearGradient id="paint1_linear_2326_2800" x1="22.9294" y1="26.4062" x2="22.9294" y2="56.3008" gradientUnits="userSpaceOnUse">
<stop stop-color="#C1AA94"/>
<stop offset="1" stop-color="#C1AA94" stop-opacity="0"/>
</linearGradient>
<linearGradient id="paint2_linear_2326_2800" x1="22.9308" y1="28.0376" x2="22.9308" y2="56.2992" gradientUnits="userSpaceOnUse">
<stop stop-color="#C1AA94"/>
<stop offset="1" stop-color="#C1AA94" stop-opacity="0"/>
</linearGradient>
<linearGradient id="paint3_linear_2326_2800" x1="22.9324" y1="29.6714" x2="22.9324" y2="56.3" gradientUnits="userSpaceOnUse">
<stop stop-color="#C1AA94"/>
<stop offset="1" stop-color="#C1AA94" stop-opacity="0"/>
</linearGradient>
<linearGradient id="paint4_linear_2326_2800" x1="22.9294" y1="31.3042" x2="22.9294" y2="56.3007" gradientUnits="userSpaceOnUse">
<stop stop-color="#C1AA94"/>
<stop offset="1" stop-color="#C1AA94" stop-opacity="0"/>
</linearGradient>
<linearGradient id="paint5_linear_2326_2800" x1="22.9307" y1="32.9375" x2="22.9307" y2="56.301" gradientUnits="userSpaceOnUse">
<stop stop-color="#C1AA94"/>
<stop offset="1" stop-color="#C1AA94" stop-opacity="0"/>
</linearGradient>
<linearGradient id="paint6_linear_2326_2800" x1="22.9304" y1="34.5684" x2="22.9304" y2="56.2989" gradientUnits="userSpaceOnUse">
<stop stop-color="#C1AA94"/>
<stop offset="1" stop-color="#C1AA94" stop-opacity="0"/>
</linearGradient>
<linearGradient id="paint7_linear_2326_2800" x1="22.9278" y1="36.2031" x2="22.9278" y2="56.3016" gradientUnits="userSpaceOnUse">
<stop stop-color="#C1AA94"/>
<stop offset="1" stop-color="#C1AA94" stop-opacity="0"/>
</linearGradient>
<linearGradient id="paint8_linear_2326_2800" x1="22.9272" y1="37.835" x2="22.9272" y2="56.3004" gradientUnits="userSpaceOnUse">
<stop stop-color="#C1AA94"/>
<stop offset="1" stop-color="#C1AA94" stop-opacity="0"/>
</linearGradient>
<linearGradient id="paint9_linear_2326_2800" x1="22.9308" y1="39.4673" x2="22.9308" y2="56.2998" gradientUnits="userSpaceOnUse">
<stop stop-color="#C1AA94"/>
<stop offset="1" stop-color="#C1AA94" stop-opacity="0"/>
</linearGradient>
<linearGradient id="paint10_linear_2326_2800" x1="22.9302" y1="41.1006" x2="22.9302" y2="56.301" gradientUnits="userSpaceOnUse">
<stop stop-color="#C1AA94"/>
<stop offset="1" stop-color="#C1AA94" stop-opacity="0"/>
</linearGradient>
<linearGradient id="paint11_linear_2326_2800" x1="22.9286" y1="42.7324" x2="22.9286" y2="56.2999" gradientUnits="userSpaceOnUse">
<stop stop-color="#C1AA94"/>
<stop offset="1" stop-color="#C1AA94" stop-opacity="0"/>
</linearGradient>
<linearGradient id="paint12_linear_2326_2800" x1="22.9312" y1="44.3647" x2="22.9312" y2="56.2992" gradientUnits="userSpaceOnUse">
<stop stop-color="#C1AA94"/>
<stop offset="1" stop-color="#C1AA94" stop-opacity="0"/>
</linearGradient>
</defs>
</svg>
