<svg width="24" height="36" viewBox="0 0 24 36" fill="none" xmlns="http://www.w3.org/2000/svg">
<path d="M11.8394 0.330745L6.0874 5.80316L11.8394 11.2756L17.5914 5.80316L11.8394 0.330745Z" fill="#1A595F"/>
<path d="M0.378418 12.1179V35.3142" stroke="#AD9B8A" stroke-width="0.482143" stroke-miterlimit="10"/>
<path d="M1.58398 12.1179V35.3142" stroke="#AD9B8A" stroke-width="0.482143" stroke-miterlimit="10"/>
<path d="M2.78906 12.1179V35.3142" stroke="#AD9B8A" stroke-width="0.482143" stroke-miterlimit="10"/>
<path d="M3.99707 12.1179V35.3142" stroke="#AD9B8A" stroke-width="0.482143" stroke-miterlimit="10"/>
<path d="M5.20508 12.1179V35.3142" stroke="#AD9B8A" stroke-width="0.482143" stroke-miterlimit="10"/>
<path d="M6.41016 12.1179V35.3142" stroke="#AD9B8A" stroke-width="0.482143" stroke-miterlimit="10"/>
<path d="M7.61523 12.1179V35.3142" stroke="#AD9B8A" stroke-width="0.482143" stroke-miterlimit="10"/>
<path d="M8.8208 12.1179V35.3142" stroke="#AD9B8A" stroke-width="0.482143" stroke-miterlimit="10"/>
<path d="M10.0293 12.1179V35.3142" stroke="#AD9B8A" stroke-width="0.482143" stroke-miterlimit="10"/>
<path d="M11.2373 12.1179V35.3142" stroke="#AD9B8A" stroke-width="0.482143" stroke-miterlimit="10"/>
<path d="M12.4424 12.1179V35.3142" stroke="#AD9B8A" stroke-width="0.482143" stroke-miterlimit="10"/>
<path d="M13.6479 12.1179V35.3142" stroke="#AD9B8A" stroke-width="0.482143" stroke-miterlimit="10"/>
<path d="M14.853 12.1179V35.3142" stroke="#AD9B8A" stroke-width="0.482143" stroke-miterlimit="10"/>
<path d="M16.0586 12.1179V35.3142" stroke="#AD9B8A" stroke-width="0.482143" stroke-miterlimit="10"/>
<path d="M17.2666 12.1179V35.3142" stroke="#AD9B8A" stroke-width="0.482143" stroke-miterlimit="10"/>
<path d="M18.4741 12.1179V35.3142" stroke="#AD9B8A" stroke-width="0.482143" stroke-miterlimit="10"/>
<path d="M19.6797 12.1179V35.3142" stroke="#AD9B8A" stroke-width="0.482143" stroke-miterlimit="10"/>
<path d="M20.8877 12.1179V35.3142" stroke="#AD9B8A" stroke-width="0.482143" stroke-miterlimit="10"/>
<path d="M22.0962 12.1179V35.3142" stroke="#AD9B8A" stroke-width="0.482143" stroke-miterlimit="10"/>
<path d="M23.3018 12.1179V35.3142" stroke="#AD9B8A" stroke-width="0.482143" stroke-miterlimit="10"/>
<path d="M0.378418 12.1179H23.3008" stroke="#AD9B8A" stroke-width="0.482143" stroke-miterlimit="10"/>
<path d="M0.227539 35.3131L23.4705 35.3131" stroke="#AD9B8A" stroke-width="0.482143" stroke-miterlimit="10"/>
</svg>
