<svg width="46" height="51" viewBox="0 0 46 51" fill="none" xmlns="http://www.w3.org/2000/svg">
<path d="M23.4273 22.0604C35.3535 22.0604 45.0205 12.4398 45.0205 0.572754H1.83398C1.83398 12.4406 11.5019 22.0604 23.4273 22.0604Z" fill="#13363A"/>
<path d="M23.4279 13.0874C11.0012 13.0874 0.891602 23.1484 0.891602 35.5143V44.715H1.52526V35.5143C1.52526 23.4958 11.3511 13.718 23.4287 13.718C35.5064 13.718 45.3322 23.4958 45.3322 35.5143V44.715H45.9659V35.5143C45.9659 23.1484 35.8563 13.0882 23.4296 13.0882L23.4279 13.0874Z" fill="url(#paint0_linear_2326_2870)"/>
<path d="M23.4285 14.7241C11.9093 14.7241 2.5376 24.05 2.5376 35.5128V44.7136H3.17126V35.5128C3.17126 24.3974 12.2584 15.3547 23.4285 15.3547C34.5987 15.3547 43.6858 24.3974 43.6858 35.5128V44.7136H44.3195V35.5128C44.3195 24.05 34.9478 14.7241 23.4285 14.7241Z" fill="url(#paint1_linear_2326_2870)"/>
<path d="M23.4264 16.3643C12.8146 16.3643 4.18164 24.955 4.18164 35.5148V44.7156H4.8153V35.5148C4.8153 25.3024 13.1646 16.9948 23.4264 16.9948C33.6882 16.9948 42.0375 25.3032 42.0375 35.5148V44.7156H42.6712V35.5148C42.6712 24.955 34.0381 16.3643 23.4264 16.3643Z" fill="url(#paint2_linear_2326_2870)"/>
<path d="M23.4286 18C13.7244 18 5.83008 25.8565 5.83008 35.5124V44.7132H6.46374V35.5124C6.46374 26.203 14.0743 18.6297 23.4295 18.6297C32.7846 18.6297 40.3952 26.203 40.3952 35.5124V44.7132H41.0289V35.5124C41.0289 25.8557 33.1337 18 23.4303 18H23.4286Z" fill="url(#paint3_linear_2326_2870)"/>
<path d="M23.4288 19.6396C14.632 19.6396 7.47559 26.761 7.47559 35.5148V44.7155H8.10925V35.5148C8.10925 27.1092 14.9819 20.2702 23.4288 20.2702C31.8757 20.2702 38.7483 27.1092 38.7483 35.5148V44.7155H39.382V35.5148C39.382 26.761 32.2256 19.6396 23.4288 19.6396Z" fill="url(#paint4_linear_2326_2870)"/>
<path d="M23.4281 21.2769C15.5388 21.2769 9.12109 27.6639 9.12109 35.5138V44.7146H9.75475V35.5138C9.75475 28.0113 15.8887 21.9074 23.4281 21.9074C30.9675 21.9074 37.1014 28.0113 37.1014 35.5138V44.7146H37.7351V35.5138C37.7351 27.6631 31.3166 21.2769 23.4281 21.2769Z" fill="url(#paint5_linear_2326_2870)"/>
<path d="M23.4303 22.9141C16.4493 22.9141 10.7695 28.5661 10.7695 35.5129V44.7136H11.4032V35.5129C11.4032 28.9134 16.7984 23.5438 23.4312 23.5438C30.0639 23.5438 35.4591 28.9126 35.4591 35.5129V44.7136H36.0928V35.5129C36.0928 28.5661 30.413 22.9141 23.432 22.9141H23.4303Z" fill="url(#paint6_linear_2326_2870)"/>
<path d="M23.429 24.5527C17.3555 24.5527 12.4136 29.4696 12.4136 35.5143V44.715H13.0472V35.5143C13.0472 29.8178 17.7046 25.1833 23.429 25.1833C29.1535 25.1833 33.8108 29.8178 33.8108 35.5143V44.715H34.4445V35.5143C34.4445 29.4704 29.5034 24.5527 23.429 24.5527Z" fill="url(#paint7_linear_2326_2870)"/>
<path d="M23.4288 26.1899C18.2627 26.1899 14.0596 30.3725 14.0596 35.5133V44.7141H14.6932V35.5133C14.6932 30.7199 18.6118 26.8205 23.4288 26.8205C28.2458 26.8205 32.1644 30.7199 32.1644 35.5133V44.7141H32.7981V35.5133C32.7981 30.3725 28.5949 26.1899 23.4288 26.1899Z" fill="url(#paint8_linear_2326_2870)"/>
<path d="M23.4281 27.8281C19.1695 27.8281 15.7051 31.2756 15.7051 35.5134V44.7141H16.3387V35.5134C16.3387 31.623 19.5195 28.4579 23.429 28.4579C27.3385 28.4579 30.5192 31.623 30.5192 35.5134V44.7141H31.1528V35.5134C31.1528 31.2756 27.6884 27.8281 23.4298 27.8281H23.4281Z" fill="url(#paint9_linear_2326_2870)"/>
<path d="M23.4273 29.4668C20.0762 29.4668 17.3496 32.18 17.3496 35.5147V44.7155H17.9833V35.5147C17.9833 32.5274 20.4253 30.0974 23.4273 30.0974C26.4293 30.0974 28.8713 32.5274 28.8713 35.5147V44.7155H29.505V35.5147C29.505 32.18 26.7784 29.4668 23.4273 29.4668Z" fill="url(#paint10_linear_2326_2870)"/>
<path d="M23.4271 31.104C20.9834 31.104 18.9956 33.0821 18.9956 35.5138V44.7145H19.6293V35.5138C19.6293 33.4295 21.3334 31.7346 23.4271 31.7346C25.5208 31.7346 27.2249 33.4303 27.2249 35.5138V44.7145H27.8586V35.5138C27.8586 33.0821 25.8707 31.104 23.4271 31.104Z" fill="url(#paint11_linear_2326_2870)"/>
<path d="M23.4269 32.7412C21.8907 32.7412 20.6416 33.985 20.6416 35.5129V44.7136H21.2753V35.5129C21.2753 34.3316 22.2406 33.3709 23.4277 33.3709C24.6148 33.3709 25.5802 34.3316 25.5802 35.5129V44.7136H26.2138V35.5129C26.2138 33.9842 24.9639 32.7412 23.4286 32.7412H23.4269Z" fill="url(#paint12_linear_2326_2870)"/>
<path d="M23.4282 50.8155C28.403 50.8155 32.4359 46.8023 32.4359 41.8518C32.4359 36.9014 28.403 32.8882 23.4282 32.8882C18.4533 32.8882 14.4204 36.9014 14.4204 41.8518C14.4204 46.8023 18.4533 50.8155 23.4282 50.8155Z" fill="#E0C6B2"/>
<defs>
<linearGradient id="paint0_linear_2326_2870" x1="23.4287" y1="13.0874" x2="23.4287" y2="44.715" gradientUnits="userSpaceOnUse">
<stop stop-color="#C1AA94"/>
<stop offset="1" stop-color="#C1AA94" stop-opacity="0"/>
</linearGradient>
<linearGradient id="paint1_linear_2326_2870" x1="23.4285" y1="14.7241" x2="23.4285" y2="44.7136" gradientUnits="userSpaceOnUse">
<stop stop-color="#C1AA94"/>
<stop offset="1" stop-color="#C1AA94" stop-opacity="0"/>
</linearGradient>
<linearGradient id="paint2_linear_2326_2870" x1="23.4264" y1="16.3643" x2="23.4264" y2="44.7156" gradientUnits="userSpaceOnUse">
<stop stop-color="#C1AA94"/>
<stop offset="1" stop-color="#C1AA94" stop-opacity="0"/>
</linearGradient>
<linearGradient id="paint3_linear_2326_2870" x1="23.4295" y1="18" x2="23.4295" y2="44.7132" gradientUnits="userSpaceOnUse">
<stop stop-color="#C1AA94"/>
<stop offset="1" stop-color="#C1AA94" stop-opacity="0"/>
</linearGradient>
<linearGradient id="paint4_linear_2326_2870" x1="23.4288" y1="19.6396" x2="23.4288" y2="44.7155" gradientUnits="userSpaceOnUse">
<stop stop-color="#C1AA94"/>
<stop offset="1" stop-color="#C1AA94" stop-opacity="0"/>
</linearGradient>
<linearGradient id="paint5_linear_2326_2870" x1="23.4281" y1="21.2769" x2="23.4281" y2="44.7146" gradientUnits="userSpaceOnUse">
<stop stop-color="#C1AA94"/>
<stop offset="1" stop-color="#C1AA94" stop-opacity="0"/>
</linearGradient>
<linearGradient id="paint6_linear_2326_2870" x1="23.4312" y1="22.9141" x2="23.4312" y2="44.7136" gradientUnits="userSpaceOnUse">
<stop stop-color="#C1AA94"/>
<stop offset="1" stop-color="#C1AA94" stop-opacity="0"/>
</linearGradient>
<linearGradient id="paint7_linear_2326_2870" x1="23.429" y1="24.5527" x2="23.429" y2="44.715" gradientUnits="userSpaceOnUse">
<stop stop-color="#C1AA94"/>
<stop offset="1" stop-color="#C1AA94" stop-opacity="0"/>
</linearGradient>
<linearGradient id="paint8_linear_2326_2870" x1="23.4288" y1="26.1899" x2="23.4288" y2="44.7141" gradientUnits="userSpaceOnUse">
<stop stop-color="#C1AA94"/>
<stop offset="1" stop-color="#C1AA94" stop-opacity="0"/>
</linearGradient>
<linearGradient id="paint9_linear_2326_2870" x1="23.429" y1="27.8281" x2="23.429" y2="44.7141" gradientUnits="userSpaceOnUse">
<stop stop-color="#C1AA94"/>
<stop offset="1" stop-color="#C1AA94" stop-opacity="0"/>
</linearGradient>
<linearGradient id="paint10_linear_2326_2870" x1="23.4273" y1="29.4668" x2="23.4273" y2="44.7155" gradientUnits="userSpaceOnUse">
<stop stop-color="#C1AA94"/>
<stop offset="1" stop-color="#C1AA94" stop-opacity="0"/>
</linearGradient>
<linearGradient id="paint11_linear_2326_2870" x1="23.4271" y1="31.104" x2="23.4271" y2="44.7145" gradientUnits="userSpaceOnUse">
<stop stop-color="#C1AA94"/>
<stop offset="1" stop-color="#C1AA94" stop-opacity="0"/>
</linearGradient>
<linearGradient id="paint12_linear_2326_2870" x1="23.4277" y1="32.7412" x2="23.4277" y2="44.7136" gradientUnits="userSpaceOnUse">
<stop stop-color="#C1AA94"/>
<stop offset="1" stop-color="#C1AA94" stop-opacity="0"/>
</linearGradient>
</defs>
</svg>
