<svg width="26" height="33" viewBox="0 0 26 33" fill="none" xmlns="http://www.w3.org/2000/svg">
<path d="M16.0414 8.26154V20.1908C16.0414 21.9422 14.6087 23.3749 12.8574 23.3749C11.106 23.3749 9.67334 21.9422 9.67334 20.1908V8.26154H16.0414Z" stroke="#AD9B8A" stroke-width="0.485992" stroke-miterlimit="10"/>
<path d="M16.9004 8.26154V20.294C16.9004 22.5152 15.0826 24.3331 12.8614 24.3331C10.6401 24.3331 8.82227 22.5152 8.82227 20.294V8.26154H16.9004Z" stroke="#AD9B8A" stroke-width="0.485992" stroke-miterlimit="10"/>
<path d="M17.7468 8.26154V20.2275C17.7468 22.9095 15.5531 25.1033 12.8711 25.1033C10.189 25.1033 7.99756 22.9095 7.99756 20.2275V8.26154H17.7468Z" stroke="#AD9B8A" stroke-width="0.485992" stroke-miterlimit="10"/>
<path d="M18.6312 8.26154V20.2802C18.6312 23.4391 16.0478 26.0225 12.8912 26.0225C9.73467 26.0225 7.14893 23.4391 7.14893 20.2802V8.26154H18.6312Z" stroke="#AD9B8A" stroke-width="0.485992" stroke-miterlimit="10"/>
<path d="M19.5214 8.26154V20.2573C19.5214 23.8792 16.5551 26.8455 12.9309 26.8455C9.30676 26.8455 6.34277 23.8792 6.34277 20.2573V8.26154H19.5214Z" stroke="#AD9B8A" stroke-width="0.485992" stroke-miterlimit="10"/>
<path d="M20.4326 8.26154V20.2275C20.4326 24.3743 17.04 27.7647 12.8954 27.7647C8.7509 27.7647 5.35596 24.3743 5.35596 20.2275V8.26154H20.4326Z" stroke="#AD9B8A" stroke-width="0.485992" stroke-miterlimit="10"/>
<path d="M21.3809 8.26154V20.2137C21.3809 24.8878 17.5573 28.7091 12.8855 28.7091C8.21374 28.7091 4.39014 24.8878 4.39014 20.2137V8.26154H21.3809Z" stroke="#AD9B8A" stroke-width="0.485992" stroke-miterlimit="10"/>
<path d="M22.236 8.26154V20.1358C22.236 25.2638 18.041 29.461 12.9108 29.461C7.78056 29.461 3.58789 25.2638 3.58789 20.1358V8.26154H22.236Z" stroke="#AD9B8A" stroke-width="0.485992" stroke-miterlimit="10"/>
<path d="M23.1064 8.26154V20.2367C23.1064 25.83 18.5309 30.4032 12.9399 30.4032C7.34893 30.4032 2.77344 25.83 2.77344 20.2367V8.26154H23.1064Z" stroke="#AD9B8A" stroke-width="0.485992" stroke-miterlimit="10"/>
<path d="M24.001 8.26154V20.2596C24.001 26.3732 18.9992 31.3751 12.8855 31.3751C6.77188 31.3751 1.77002 26.3732 1.77002 20.2596V8.26154H24.001Z" stroke="#AD9B8A" stroke-width="0.485992" stroke-miterlimit="10"/>
<path d="M24.9051 8.26147V20.1954C24.9051 26.811 19.4929 32.2209 12.8796 32.2209C6.2662 32.2209 0.854004 26.811 0.854004 20.1954V8.26147H24.9051Z" stroke="#AD9B8A" stroke-width="0.485992" stroke-miterlimit="10"/>
<path d="M16.0444 8.26154V20.1908C16.0444 21.9422 14.6117 23.3749 12.8603 23.3749C11.109 23.3749 9.67627 21.9422 9.67627 20.1908V8.26154H16.0444Z" stroke="#AD9B8A" stroke-width="0.485992" stroke-miterlimit="10"/>
<path d="M16.9004 8.26154V20.294C16.9004 22.5152 15.0826 24.3331 12.8614 24.3331C10.6401 24.3331 8.82227 22.5152 8.82227 20.294V8.26154H16.9004Z" stroke="#AD9B8A" stroke-width="0.485992" stroke-miterlimit="10"/>
<path d="M17.7468 8.26154V20.2275C17.7468 22.9095 15.5531 25.1033 12.8711 25.1033C10.189 25.1033 7.99756 22.9095 7.99756 20.2275V8.26154H17.7468Z" stroke="#AD9B8A" stroke-width="0.485992" stroke-miterlimit="10"/>
<path d="M18.6312 8.26154V20.2802C18.6312 23.4391 16.0478 26.0225 12.8912 26.0225C9.73467 26.0225 7.14893 23.4391 7.14893 20.2802V8.26154H18.6312Z" stroke="#AD9B8A" stroke-width="0.485992" stroke-miterlimit="10"/>
<path d="M19.5214 8.26154V20.2573C19.5214 23.8792 16.5551 26.8455 12.9309 26.8455C9.30676 26.8455 6.34277 23.8792 6.34277 20.2573V8.26154H19.5214Z" stroke="#AD9B8A" stroke-width="0.485992" stroke-miterlimit="10"/>
<path d="M20.4326 8.26154V20.2275C20.4326 24.3743 17.04 27.7647 12.8954 27.7647C8.7509 27.7647 5.35596 24.3743 5.35596 20.2275V8.26154H20.4326Z" stroke="#AD9B8A" stroke-width="0.485992" stroke-miterlimit="10"/>
<path d="M21.3809 8.26154V20.2137C21.3809 24.8878 17.5573 28.7091 12.8855 28.7091C8.21374 28.7091 4.39014 24.8878 4.39014 20.2137V8.26154H21.3809Z" stroke="#AD9B8A" stroke-width="0.485992" stroke-miterlimit="10"/>
<path d="M22.236 8.26154V20.1358C22.236 25.2638 18.041 29.461 12.9108 29.461C7.78056 29.461 3.58789 25.2638 3.58789 20.1358V8.26154H22.236Z" stroke="#AD9B8A" stroke-width="0.485992" stroke-miterlimit="10"/>
<path d="M23.1045 8.26154V20.2367C23.1045 25.83 18.529 30.4032 12.938 30.4032C7.34698 30.4032 2.77148 25.83 2.77148 20.2367V8.26154H23.1045Z" stroke="#AD9B8A" stroke-width="0.485992" stroke-miterlimit="10"/>
<path d="M24.001 8.26154V20.2596C24.001 26.3732 18.9992 31.3751 12.8855 31.3751C6.77188 31.3751 1.77002 26.3732 1.77002 20.2596V8.26154H24.001Z" stroke="#AD9B8A" stroke-width="0.485992" stroke-miterlimit="10"/>
<path d="M24.9051 8.26147V20.1954C24.9051 26.811 19.4929 32.2209 12.8796 32.2209C6.2662 32.2209 0.854004 26.811 0.854004 20.1954V8.26147H24.9051Z" stroke="#AD9B8A" stroke-width="0.485992" stroke-miterlimit="10"/>
<path d="M12.9409 8.26084C17.4101 8.26084 21.0327 4.63794 21.0327 0.169067H4.84912C4.84912 4.63825 8.47202 8.26084 12.9409 8.26084Z" fill="#1A595F"/>
</svg>
