<svg width="1439" height="202" viewBox="0 0 1439 202" fill="none" xmlns="http://www.w3.org/2000/svg">
<path d="M0.601562 162.152H440.044C442.401 162.152 444.308 160.245 444.308 157.888V143.386C444.308 141.03 446.216 139.122 448.572 139.122H560.979C563.336 139.122 565.243 137.214 565.243 134.858V120.356C565.243 118 567.151 116.092 569.507 116.092H598.306C600.663 116.092 602.57 114.184 602.57 111.828V97.3258C602.57 94.9696 604.478 93.0618 606.834 93.0618H635.633C637.99 93.0618 639.897 91.154 639.897 88.7978V74.2957C639.897 71.9394 641.805 70.0317 644.161 70.0317H672.961C675.317 70.0317 677.225 68.1239 677.225 65.7677V51.2655C677.225 48.9093 679.132 47.0015 681.489 47.0015H809.097C811.453 47.0015 813.361 45.0937 813.361 42.7375V28.2353C813.361 25.8791 815.269 23.9714 817.625 23.9714H846.424C848.78 23.9714 850.688 22.0636 850.688 19.7074V5.19759C850.688 2.84137 852.596 0.933594 854.952 0.933594H1440.53V201.304H0.601562V162.16V162.152Z" fill="#0C2225"/>
<path d="M0.601562 162.152H440.044C442.401 162.152 444.308 160.245 444.308 157.888V143.386C444.308 141.03 446.216 139.122 448.572 139.122H560.979C563.336 139.122 565.243 137.214 565.243 134.858V120.356C565.243 118 567.151 116.092 569.507 116.092H598.306C600.663 116.092 602.57 114.184 602.57 111.828V97.3258C602.57 94.9696 604.478 93.0618 606.834 93.0618H635.633C637.99 93.0618 639.897 91.154 639.897 88.7978V74.2957C639.897 71.9394 641.805 70.0317 644.161 70.0317H672.961C675.317 70.0317 677.225 68.1239 677.225 65.7677V51.2655C677.225 48.9093 679.132 47.0015 681.489 47.0015H809.097C811.453 47.0015 813.361 45.0937 813.361 42.7375V28.2353C813.361 25.8791 815.269 23.9714 817.625 23.9714H846.424C848.78 23.9714 850.688 22.0636 850.688 19.7074V5.19759C850.688 2.84137 852.596 0.933594 854.952 0.933594H1440.53" stroke="#CEC0B0" stroke-width="0.760071" stroke-miterlimit="10"/>
</svg>
