<svg width="184" height="43" viewBox="0 0 184 43" fill="none" xmlns="http://www.w3.org/2000/svg">
<path d="M38.8281 26.148V1.24463H55.9151V4.79759H42.7108V12.0356H54.9211V15.5886H42.7108V26.148H38.8297H38.8281Z" fill="white"/>
<path d="M55.7188 18.5105C55.7188 15.9647 56.4596 14.0002 57.9412 12.6169C59.4228 11.2336 61.5133 10.542 64.2125 10.542C66.9118 10.542 68.9743 11.2336 70.4668 12.6169C71.9593 14.0002 72.7063 15.9647 72.7063 18.5105C72.7063 21.0563 71.9593 23.0209 70.4668 24.4042C68.9743 25.7874 66.8885 26.479 64.2125 26.479C61.5366 26.479 59.4228 25.7874 57.9412 24.4042C56.4596 23.0209 55.7188 21.0563 55.7188 18.5105ZM59.3359 18.5105C59.3359 20.1269 59.7505 21.3501 60.5799 22.1801C61.4092 23.01 62.6206 23.425 64.2125 23.425C65.8044 23.425 67.0158 23.01 67.8452 22.1801C68.6745 21.3501 69.0892 20.1269 69.0892 18.5105C69.0892 16.8941 68.6745 15.6709 67.8452 14.841C67.0158 14.011 65.8044 13.5961 64.2125 13.5961C62.6206 13.5961 61.4092 14.011 60.5799 14.841C59.7505 15.6709 59.3359 16.8941 59.3359 18.5105Z" fill="white"/>
<path d="M77.2835 10.873V18.1779C77.2835 19.1524 77.4 19.9762 77.6314 20.6507C77.8644 21.3268 78.1905 21.8677 78.6099 22.278C79.0292 22.6883 79.5169 22.9867 80.0698 23.1748C80.6227 23.3628 81.2082 23.4576 81.8278 23.4576C82.3807 23.4576 82.8948 23.3908 83.3701 23.2587C83.8453 23.1266 84.2833 22.9541 84.6809 22.7442C85.0784 22.5344 85.4155 22.3013 85.6935 22.0464C85.9699 21.7931 86.1858 21.5537 86.3411 21.333V10.8746H89.9908V26.148H86.3411C86.3411 25.705 86.3955 25.3009 86.5073 24.9357C86.6175 24.5705 86.7946 24.112 87.0384 23.5571L86.1097 23.2913C85.5335 24.3544 84.7383 25.1502 83.7211 25.6817C82.7038 26.2133 81.5747 26.479 80.3369 26.479C79.4967 26.479 78.672 26.3236 77.8644 26.0143C77.0568 25.705 76.3439 25.217 75.7242 24.5534C75.1046 23.8897 74.6076 23.0489 74.2317 22.0293C73.8559 21.0113 73.668 19.7943 73.668 18.3769V10.873H77.2851H77.2835Z" fill="white"/>
<path d="M91.7109 10.873H95.3281C95.3281 11.316 95.2784 11.7201 95.179 12.0853C95.0796 12.4506 94.9072 12.9106 94.6649 13.4639L95.5936 13.7297C96.1683 12.6666 96.9479 11.8709 97.9326 11.3393C98.9172 10.8078 99.9407 10.542 101.001 10.542C101.863 10.542 102.694 10.6974 103.489 11.0067C104.286 11.3176 104.999 11.8087 105.63 12.4848C106.26 13.1609 106.763 14.0235 107.139 15.0741C107.515 16.1263 107.703 17.3821 107.703 18.8431V26.148H104.086V18.8431C104.086 17.8686 103.969 17.0449 103.738 16.3688C103.507 15.6943 103.179 15.1518 102.76 14.7415C102.339 14.3328 101.853 14.0328 101.3 13.8447C100.747 13.6567 100.149 13.5619 99.5074 13.5619C99.043 13.5619 98.5957 13.6287 98.164 13.7608C97.7322 13.8929 97.3346 14.0654 96.9697 14.2752C96.6047 14.4866 96.2785 14.7182 95.9912 14.9731C95.7039 15.228 95.4818 15.4658 95.3281 15.6865V26.1449H91.7109V10.8715V10.873Z" fill="white"/>
<path d="M115.406 26.4792C114.477 26.4792 113.592 26.3237 112.752 26.0144C111.912 25.7052 111.165 25.2233 110.512 24.5706C109.86 23.9178 109.346 23.0925 108.97 22.0962C108.594 21.1 108.406 19.9048 108.406 18.5106C108.406 17.1165 108.594 15.9213 108.97 14.925C109.346 13.9288 109.86 13.105 110.512 12.4507C111.165 11.7979 111.912 11.3161 112.752 11.0068C113.592 10.6975 114.477 10.5421 115.406 10.5421C116.799 10.5421 118.021 10.8079 119.073 11.3394C120.123 11.871 120.936 12.6667 121.511 13.7298L122.44 13.4641C122.196 12.9107 122.019 12.3357 121.909 11.7373C121.798 11.1389 121.743 10.354 121.743 9.37954V0.581055H125.392V26.1481H121.743C121.743 25.7052 121.797 25.3011 121.909 24.9358C122.019 24.5706 122.196 24.1121 122.44 23.5572L121.511 23.2914C120.935 24.3545 120.123 25.1503 119.073 25.6818C118.021 26.2134 116.799 26.4792 115.406 26.4792ZM112.022 18.5106C112.022 19.3965 112.143 20.155 112.387 20.7845C112.629 21.4155 112.968 21.9299 113.398 22.3278C113.83 22.7257 114.344 23.0148 114.94 23.1904C115.536 23.3676 116.189 23.4562 116.897 23.4562C117.538 23.4562 118.119 23.3894 118.639 23.2572C119.16 23.1251 119.624 22.9526 120.033 22.7428C120.441 22.533 120.791 22.2998 121.078 22.0449C121.365 21.7916 121.587 21.5523 121.741 21.3316V15.6866C121.586 15.4659 121.365 15.2281 121.078 14.9732C120.791 14.7183 120.441 14.4867 120.033 14.2754C119.623 14.0655 119.158 13.893 118.639 13.7609C118.119 13.6288 117.538 13.562 116.897 13.562C116.189 13.562 115.536 13.6506 114.94 13.8277C114.342 14.0049 113.828 14.2925 113.398 14.6903C112.966 15.0882 112.629 15.6042 112.387 16.2337C112.143 16.8647 112.022 17.6232 112.022 18.5075V18.5106Z" fill="white"/>
<path d="M126.949 18.5105C126.949 17.2718 127.137 16.1652 127.513 15.1907C127.889 14.2177 128.442 13.3816 129.172 12.6837C129.902 11.9859 130.792 11.4543 131.843 11.0891C132.893 10.7238 134.093 10.542 135.443 10.542C136.793 10.542 137.992 10.7254 139.043 11.0891C140.093 11.4543 140.984 11.9859 141.714 12.6837C142.444 13.3816 142.997 14.2162 143.373 15.1907C143.749 16.1652 143.937 17.2718 143.937 18.5105V19.6389H130.666C130.821 20.946 131.307 21.9252 132.126 22.5779C132.944 23.2307 134.05 23.5571 135.443 23.5571C136.97 23.5571 138.097 23.3411 138.827 22.909C139.557 22.4769 139.976 21.9625 140.088 21.3656H143.705C143.573 22.0961 143.319 22.7707 142.943 23.3908C142.567 24.0109 142.042 24.5471 141.366 25.001C140.692 25.4548 139.868 25.8138 138.894 26.0796C137.92 26.3454 136.771 26.479 135.443 26.479C134.115 26.479 132.893 26.2956 131.843 25.9304C130.792 25.5652 129.902 25.0336 129.172 24.3358C128.442 23.6379 127.889 22.7971 127.513 21.8133C127.137 20.8279 126.949 19.7275 126.949 18.509V18.5105ZM135.443 13.4639C134.072 13.4639 132.977 13.7841 132.158 14.426C131.34 15.0679 130.843 16.0206 130.666 17.2811H140.188C140.011 16.0191 139.518 15.0679 138.711 14.426C137.903 13.7841 136.814 13.4639 135.443 13.4639Z" fill="white"/>
<path d="M146.094 10.8732C146.668 10.8732 147.072 11.0286 147.305 11.3379C147.538 11.6488 147.653 12.0249 147.653 12.4663C147.653 12.8642 147.564 13.2745 147.387 13.6942L148.35 13.9599C148.527 13.318 148.698 12.7927 148.864 12.3824C149.031 11.9736 149.264 11.6581 149.562 11.4359C149.86 11.2152 150.247 11.066 150.723 10.9882C151.199 10.9105 151.823 10.8717 152.598 10.8717H154.589V13.9257H152.598C151.935 13.9257 151.404 13.9584 151.006 14.0252C150.608 14.092 150.309 14.2024 150.11 14.3578C149.911 14.5132 149.784 14.7184 149.728 14.9717C149.672 15.2266 149.646 15.553 149.646 15.9509V26.1435H146.028V15.2857C146.028 14.6873 145.945 14.3112 145.78 14.1573C145.614 14.0019 145.244 13.9242 144.668 13.9242V10.8701H146.095L146.094 10.8732Z" fill="white"/>
<path d="M44.9727 34.3551C44.9727 33.693 44.6683 33.2329 44.0657 32.9765C43.7023 32.8506 43.2845 32.7915 42.8139 32.7915H40.0277V32.964C40.3554 32.9702 40.5697 33.0122 40.6893 33.0775C40.8089 33.1428 40.8679 33.2687 40.8679 33.4474C40.8679 33.5251 40.8492 33.6448 40.8135 33.8049C40.7949 33.8701 40.7716 33.9665 40.7359 34.0862L39.4173 38.8561C39.3226 39.1903 39.203 39.4047 39.0539 39.512C38.9576 39.5835 38.7852 39.6254 38.5352 39.6488V39.8213H41.5124C42.4194 39.8213 43.1354 39.6239 43.6603 39.2245C44.179 38.8312 44.4415 38.3354 44.4415 37.7495C44.4415 37.2242 44.2738 36.8123 43.9399 36.5014C43.7551 36.3336 43.4739 36.1797 43.1043 36.0414C43.5873 35.9342 43.957 35.802 44.2319 35.6357C44.7273 35.3311 44.9711 34.9021 44.9711 34.3519L44.9727 34.3551ZM43.2658 37.5785C43.2658 38.1039 43.1043 38.5515 42.7704 38.9214C42.4427 39.2975 41.924 39.4825 41.2142 39.4825C40.9999 39.4825 40.8384 39.4591 40.7374 39.4234C40.5588 39.3581 40.4687 39.2322 40.4687 39.0411L40.4874 38.8794L40.5293 38.7007L41.2096 36.259C41.955 36.2714 42.4443 36.3305 42.6881 36.4377C43.0764 36.6165 43.2674 36.9988 43.2674 37.5785H43.2658ZM43.081 35.6808C42.7704 35.8362 42.3355 35.9139 41.7811 35.9139L41.309 35.9077L42.0016 33.4116C42.0311 33.2982 42.0917 33.2205 42.174 33.1785C42.2579 33.1365 42.4132 33.1132 42.6508 33.1132C43.0142 33.1132 43.314 33.1972 43.5407 33.3635C43.7675 33.5313 43.8809 33.8111 43.8809 34.2167C43.8809 34.927 43.6122 35.4104 43.081 35.6793V35.6808Z" fill="white"/>
<path d="M49.2116 35.0435C49.0718 35.0435 48.9662 35.0808 48.8963 35.1538C48.8264 35.2269 48.7907 35.3186 48.7907 35.4274C48.7907 35.5579 48.828 35.6605 48.9041 35.7382C48.9786 35.8159 49.0454 35.8688 49.1013 35.8967L49.1914 35.9449C49.269 35.9869 49.3172 36.0366 49.3389 36.0957L49.37 36.2729C49.37 36.5324 49.2023 36.9878 48.8652 37.6375C48.6928 37.9685 48.4226 38.4426 48.0545 39.0596L47.8418 37.8038C47.7874 37.4758 47.6476 36.9536 47.424 36.234C47.1755 35.4336 47.0062 35.0388 46.9192 35.0497L46.809 35.0606L45.3724 35.3388V35.5128C45.4951 35.4988 45.582 35.4895 45.6333 35.4833L45.742 35.4755C46.0184 35.4755 46.2281 35.5874 46.371 35.8112C46.5123 36.0351 46.6692 36.4625 46.8416 37.0935C46.9643 37.5427 47.0916 38.0524 47.2221 38.6275C47.3541 39.2026 47.4193 39.588 47.4193 39.7839C47.4193 39.9906 47.2298 40.3201 46.8493 40.7739C46.4688 41.2277 46.1924 41.4546 46.0216 41.4546L45.9346 41.4407L45.8631 41.4018L45.7901 41.349C45.7171 41.2852 45.6457 41.2371 45.5805 41.2044C45.5137 41.1718 45.436 41.1547 45.3491 41.1547C45.2155 41.1547 45.1145 41.1951 45.0431 41.2759C44.9732 41.3567 44.9375 41.4531 44.9375 41.565C44.9375 41.7158 44.9919 41.8354 45.1037 41.9225C45.2139 42.0095 45.3413 42.0546 45.4842 42.0546C45.8523 42.0546 46.3151 41.7375 46.8726 41.1034C47.2236 40.7008 47.6414 40.1273 48.1291 39.3844C48.5173 38.7891 48.8714 38.1737 49.1867 37.5411C49.5967 36.7096 49.8017 36.105 49.8017 35.7289C49.8017 35.4802 49.7474 35.303 49.6387 35.1989C49.53 35.0947 49.3886 35.0435 49.2131 35.0435H49.2116Z" fill="white"/>
<path d="M63.3386 36.5403C63.3386 35.1337 62.6987 34.6084 61.5355 34.6084C61.0897 34.6084 60.6688 34.7312 60.1672 34.983L60.043 34.7327H58.2383V35.8611H58.9884V38.7271H58.3625V39.8586H61.099V38.7271H60.3489V35.8611C60.6331 35.7616 60.9096 35.7337 61.2373 35.7337C62.0387 35.7337 61.9657 36.4377 61.9657 36.9258V39.8586H64.0841V38.7271H63.3401V36.5372L63.3386 36.5403Z" fill="white"/>
<path d="M64.6992 36.6738V37.8581C64.6992 39.0735 65.2086 39.8615 67.2525 39.8615C67.6889 39.8615 68.38 39.8133 69.0572 39.6703V38.615C68.5245 38.7098 68.0228 38.73 67.3767 38.73C66.5831 38.73 66.0675 38.3213 66.0675 37.6048V36.924C66.0675 36.2961 66.4371 35.864 66.9916 35.7646C67.1966 35.721 67.4932 35.7164 67.6904 35.8003V36.5417H69.0587V34.8165C68.3536 34.6844 67.6904 34.6113 67.1966 34.6113C65.4136 34.6113 64.7008 35.3947 64.7008 36.6769L64.6992 36.6738Z" fill="white"/>
<path d="M56.87 33.8606H57.4958V32.7354H54.882V33.8606H55.5001V38.73H54.75V39.8615H57.6201V38.73H56.87V33.8606Z" fill="white"/>
<path d="M78.3249 37.6046C77.6042 37.9993 77.0156 38.1081 77.0156 38.7298H80.1233V35.0479C80.1233 36.4808 79.2505 37.1057 78.3249 37.6046Z" fill="#D0BEAD"/>
<path d="M78.8878 35.1056C78.8878 34.5881 78.7045 33.8591 77.8254 33.8591C76.9464 33.8591 76.4867 34.7528 76.7694 35.7351H75.5471C75.4523 35.4538 75.3933 34.6658 75.6931 34.0488C76.0208 33.3602 76.7911 32.7339 77.8115 32.7339H73.2252L70.4297 36.6723V38.354H73.3495V37.3577H71.652L74.0328 33.8576H74.0981V39.8585H75.2768C75.2768 37.6375 76.5581 36.9256 77.7602 36.4143C78.4296 36.1376 78.8878 35.7879 78.8878 35.1025V35.1056Z" fill="#D0BEAD"/>
<path d="M165.378 10.937C169.581 13.8108 175.315 12.7306 178.187 8.52639L183.758 1.30079H180.215C179.438 1.29923 178.705 1.66292 178.239 2.28461L171.898 10.7318C171.785 10.8966 171.644 11.0396 171.479 11.1515C170.746 11.6535 169.744 11.4654 169.242 10.7318L162.946 2.32191C162.482 1.70022 161.75 1.33498 160.974 1.33498H157.438L162.968 8.52639C163.614 9.47292 164.431 10.2904 165.377 10.937H165.378Z" fill="#D0BEAD"/>
<path d="M175.824 16.7125C171.621 13.8371 165.885 14.9158 163.012 19.1215L157.441 26.3471H160.982C161.757 26.3487 162.487 25.9834 162.952 25.3648L169.299 16.9145C169.411 16.7498 169.554 16.6068 169.719 16.4949C170.452 15.9928 171.453 16.1809 171.955 16.9145L178.251 25.3244C178.715 25.9461 179.447 26.3114 180.224 26.3114H183.76L178.229 19.1231C177.583 18.1781 176.766 17.3606 175.822 16.714L175.824 16.7125Z" fill="#D0BEAD"/>
<path d="M11.658 27.493H1.51172V25.516H11.658C12.596 25.516 13.4782 25.1508 14.1414 24.4871L19.9623 18.6619C20.0291 18.595 20.0446 18.5173 20.0089 18.4303C19.9732 18.3433 19.9064 18.2997 19.8132 18.2997H9.625V16.3228H19.8116C20.7 16.3228 21.4936 16.8527 21.8322 17.6749C22.1723 18.4956 21.986 19.4328 21.3585 20.0607L15.5376 25.8859C14.5017 26.9226 13.1225 27.4945 11.6564 27.4945L11.658 27.493Z" fill="#D0BEAD"/>
<path d="M3.07049 39.7683C2.74589 39.7683 2.41975 39.7062 2.10602 39.5756C1.16175 39.1855 0.551393 38.2732 0.54984 37.2505L0.523438 18.2454C0.523438 14.0583 3.92623 10.6514 8.11023 10.6514H8.63672V8.54699C8.63672 4.3599 12.0395 0.95459 16.2235 0.95459H26.2704C27.1587 0.95459 27.9524 1.48458 28.2909 2.30677C28.6311 3.1274 28.4447 4.0646 27.8172 4.69251L21.4947 11.0198C20.4572 12.0564 19.0796 12.6284 17.6135 12.6284H10.6107V31.834C10.6107 32.7525 10.2535 33.6167 9.60429 34.2664L4.84566 39.0285C4.36265 39.5119 3.72123 39.7683 3.06738 39.7683H3.07049ZM8.11178 12.6284C5.01805 12.6284 2.50051 15.1478 2.50051 18.2438L2.52691 37.2474C2.52691 37.5738 2.76142 37.7059 2.86237 37.7478C2.96332 37.7898 3.22269 37.8613 3.45254 37.6297L8.21118 32.8676C8.48763 32.5909 8.63983 32.2241 8.63983 31.8324V12.6268H8.11333L8.11178 12.6284ZM10.6138 10.6514H17.6166C18.5547 10.6514 19.4368 10.2862 20.1 9.62096L26.4226 3.2937C26.4894 3.22687 26.5049 3.14916 26.4692 3.06212C26.4335 2.97509 26.3667 2.93157 26.2735 2.93157H16.2266C13.1329 2.93157 10.6153 5.45097 10.6153 8.54699V10.6514H10.6138Z" fill="#D0BEAD"/>
</svg>
