<svg width="29" height="40" viewBox="0 0 29 40" fill="none" xmlns="http://www.w3.org/2000/svg">
<path d="M11.6502 27.2484H1.50391V25.2714H11.6502C12.5882 25.2714 13.4704 24.9061 14.1335 24.2425L19.9545 18.4172C20.0213 18.3504 20.0368 18.2727 20.0011 18.1857C19.9654 18.0986 19.8986 18.0551 19.8054 18.0551H9.61719V16.0781H19.8038C20.6922 16.0781 21.4858 16.6081 21.8244 17.4303C22.1645 18.2509 21.9781 19.1881 21.3507 19.816L15.5298 25.6413C14.4939 26.678 13.1147 27.2499 11.6486 27.2499L11.6502 27.2484Z" fill="#D0BEAD"/>
<path d="M3.06267 39.5247C2.73808 39.5247 2.41193 39.4625 2.09821 39.3319C1.15394 38.9418 0.54358 38.0295 0.542027 37.0068L0.515625 18.0017C0.515625 13.8146 3.91842 10.4078 8.10242 10.4078H8.62891V8.30334C8.62891 4.11625 12.0317 0.710938 16.2157 0.710938H26.2626C27.1509 0.710938 27.9446 1.24093 28.2831 2.06312C28.6232 2.88375 28.4369 3.82095 27.8094 4.44886L21.4868 10.7761C20.4494 11.8128 19.0718 12.3847 17.6057 12.3847H10.6029V31.5903C10.6029 32.5089 10.2457 33.373 9.59648 34.0227L4.83784 38.7849C4.35484 39.2682 3.71341 39.5247 3.05957 39.5247H3.06267ZM8.10397 12.3847C5.01023 12.3847 2.49269 14.9041 2.49269 18.0002L2.5191 37.0037C2.5191 37.3301 2.75361 37.4622 2.85456 37.5042C2.95551 37.5461 3.21488 37.6176 3.44473 37.3861L8.20337 32.6239C8.47981 32.3472 8.63202 31.9805 8.63202 31.5888V12.3832H8.10552L8.10397 12.3847ZM10.606 10.4078H17.6088C18.5469 10.4078 19.429 10.0425 20.0922 9.37731L26.4148 3.05005C26.4816 2.98322 26.4971 2.90551 26.4614 2.81847C26.4256 2.73143 26.3589 2.68792 26.2657 2.68792H16.2188C13.1251 2.68792 10.6075 5.20732 10.6075 8.30334V10.4078H10.606Z" fill="#D0BEAD"/>
</svg>
